50 Cent - My Life (Ft. Eminem, Adam Levine) {M4A+MP4} (1080p) x264 [VX] [P2PDL]
 
http://www.shotpix.com/images/21202649620420910956.jpg

Release Title: 50 Cent - My Life (Ft. Eminem, Adam Levine) (2012)


                             1080p Full HD MP4 Video
                                        +
                              128 Kbps/VBR M4A Audio

General
Format                         : MPEG-4
Format profile                 : Base Media / Version 2
Codec ID                       : mp42
File size                      : 38.9 MiB
Duration                       : 4mn 4s

Video
ID                             : 1
Format                         : AVC
Format/Info                    : Advanced Video Codec
Format profile                 : High@L5.0
Format settings, CABAC         : Yes
Format settings, ReFrames      : 6 frames
Codec ID                       : avc1
Codec ID/Info                  : Advanced Video Coding
Duration                       : 4mn 4s
Bit rate mode                  : Variable
Bit rate                       : 1 200 Kbps
Width                          : 1 920 pixels
Height                         : 1 080 pixels
Display aspect ratio           : 16:9
Frame rate mode                : Variable
Frame rate                     : 23.976 fps
Bit depth                      : 8 bits
Scan type                      : Progressive
Bits/(Pixel*Frame)             : 0.024
Stream size                    : 35.1 MiB (90%)
Writing library                : x264 core 128

Audio
ID                             : 2
Format                         : AAC
Duration                       : 4mn 4s
Bit rate mode                  : Variable
Bit rate                       : 125 Kbps
Channel(s)                     : 2 channels
Channel positions              : Front: L R
Sampling rate                  : 48.0 KHz
Stream size                    : 3.65 MiB (9%)

Subtitles                      : No

Screens:
 
http://www.shotpix.com/images/80760899545169918420.jpg 
http://www.shotpix.com/images/42179944080634358256.jpg

Thumbs:
 
http://www.shotpix.com/images/21740226883006397481.jpg

------------------------------------------------------------------------

Notes:

* Recommended to use latest version VLC Media Player.
* Install shark007 codecs in case of any kind of problem in playback (For non-VLC Media Player users).
* Alternatively, install Core AVC codecs, the fastest decoder that there is coupled with Community Center Codec Pack and play on Windows Media Player Classic.

Greets to: VYTO, a2zRG, Chew,staff members at ExtraTorrent, TPB,KAT, 1337x, PublicHD, Ahashare, TorrentMafia, BTScene, P2PDL, and all others

Encoder Notes: Looking For Early Access To Anything You Can Provide DVDScr, R5, DVDRips, BluRay, Direct Audio, Early Music
Releases, Seedboxes, Links, Dedicated Servers anything u can provide, Advance / Promo CDs/DVDs. If You Got anything to
offer contact me at "prg@hush.com"

Facebook Fan Page: www . facebook . com / p2pdl